<svg width="287" height="287" viewBox="0 0 287 287" fill="none" xmlns="http://www.w3.org/2000/svg">
<path fill-rule="evenodd" clip-rule="evenodd" d="M143.5 0C64.2162 0 0 64.2162 0 143.5C0 206.999 41.0769 260.632 98.1181 279.646C105.293 280.901 107.984 276.596 107.984 272.829C107.984 269.421 107.804 258.121 107.804 246.102C71.75 252.739 62.4225 237.313 59.5525 229.241C57.9381 225.116 50.9425 212.38 44.8438 208.972C39.8212 206.281 32.6462 199.644 44.6644 199.465C55.965 199.286 64.0369 209.869 66.7275 214.174C79.6425 235.878 100.271 229.779 108.522 226.012C109.778 216.685 113.544 210.407 117.67 206.819C85.7412 203.232 52.3775 190.855 52.3775 135.966C52.3775 120.361 57.9381 107.446 67.0863 97.4006C65.6513 93.8131 60.6287 79.1044 68.5212 59.3731C68.5212 59.3731 80.5394 55.6062 107.984 74.0819C119.464 70.8531 131.661 69.2387 143.859 69.2387C156.056 69.2387 168.254 70.8531 179.734 74.0819C207.178 55.4269 219.196 59.3731 219.196 59.3731C227.089 79.1044 222.066 93.8131 220.631 97.4006C229.779 107.446 235.34 120.181 235.34 135.966C235.34 191.034 201.797 203.232 169.868 206.819C175.07 211.304 179.554 219.914 179.554 233.367C179.554 252.56 179.375 267.986 179.375 272.829C179.375 276.596 182.066 281.081 189.241 279.646C245.923 260.632 287 206.819 287 143.5C287 64.2162 222.784 0 143.5 0Z" fill="#57E79A"/>
</svg>
