<svg width="291" height="291" viewBox="0 0 291 291" fill="none" xmlns="http://www.w3.org/2000/svg">
<path d="M145.5 24.25C212.357 24.25 266.75 78.6428 266.75 145.5C266.75 212.357 212.357 266.75 145.5 266.75C78.6428 266.75 24.25 212.357 24.25 145.5C24.25 78.6428 78.6428 24.25 145.5 24.25ZM145.5 0C65.1476 0 0 65.1476 0 145.5C0 225.852 65.1476 291 145.5 291C225.852 291 291 225.852 291 145.5C291 65.1476 225.852 0 145.5 0ZM121.25 97C121.25 103.754 115.83 109.222 109.125 109.222C102.42 109.222 97 103.766 97 97C97 90.2464 102.42 84.778 109.125 84.778C115.83 84.778 121.25 90.2585 121.25 97V97ZM121.25 121.25H97V194H121.25V121.25ZM157.625 121.25H133.375V194H157.625V159.31C157.625 138.431 181.899 136.503 181.899 159.31V194H206.125V153.272C206.125 113.454 168.198 114.909 157.625 134.503V121.25Z" fill="#57E79A"/>
</svg>
