<svg width="1310" height="1141" viewBox="0 0 1310 1141" fill="none" xmlns="http://www.w3.org/2000/svg">
<path d="M199.751 416H257.192V679.641C227.77 685.214 206.11 687.407 182.675 687.407C112.519 687.333 76 655.947 76 595.667C76 537.587 114.737 499.893 174.765 499.893C184.08 499.893 191.176 500.627 199.751 502.827V416ZM201.764 550.338C195.037 548.137 189.493 547.404 182.396 547.404C153.344 547.404 136.563 565.15 136.563 596.251C136.563 626.531 152.605 643.25 182.027 643.25C188.384 643.25 193.559 642.892 201.764 641.792V550.338V550.338Z" fill="#0A0F29"/>
<path d="M351.124 506.971V638.973C351.124 684.431 347.723 706.292 337.743 725.139C328.428 743.259 316.157 754.685 290.8 767.305L237.5 742.153C262.856 730.352 275.128 719.925 282.964 704.012C291.169 687.739 293.756 668.892 293.756 619.319V506.972H351.124V506.971ZM287.968 416H345.408V474.447H287.968V416Z" fill="#0A0F29"/>
<path d="M322.607 208.517V237.038H368.952V263.551H322.607V294.483H375.023V322H288V181H375.023V208.517H322.607Z" fill="#0A0F29"/>
<path d="M499.692 181V208.517H462.049V322H427.443V208.517H389.8V181H499.692Z" fill="#0A0F29"/>
<path d="M551.667 295.487H597V322H517.06V181H551.667V295.487Z" fill="#0A0F29"/>
<path fill-rule="evenodd" clip-rule="evenodd" d="M887.12 456H1207.88C1221.71 456 1233 467.27 1233 481.071V705.929C1233 719.7 1221.71 731 1207.88 731H887.12C873.292 731 862 719.7 862 705.929V481.071C862 467.27 873.292 456 887.12 456ZM993.939 651.085H961.03L956.29 666.574H926.611L962.026 572.678H993.849L1029.11 666.574H998.649L993.939 651.085ZM987.81 630.775L977.545 597.026L967.219 630.775H987.81ZM1040.59 572.678H1088.95C1099.49 572.678 1107.37 575.179 1112.62 580.181C1117.85 585.183 1120.47 592.325 1120.47 601.546C1120.47 611.038 1117.61 618.451 1111.9 623.784C1106.19 629.148 1097.44 631.8 1085.69 631.8H1069.75V666.544H1040.59V572.678V572.678ZM1069.75 612.786H1076.91C1082.55 612.786 1086.51 611.791 1088.8 609.863C1091.07 607.904 1092.21 605.433 1092.21 602.389C1092.21 599.436 1091.22 596.935 1089.23 594.886C1087.26 592.837 1083.52 591.813 1078.05 591.813H1069.72V612.786H1069.75ZM1139.22 572.678H1168.39V666.574H1139.22V572.678ZM1218.18 526.181H877.972V708.37C877.972 710.298 878.726 711.986 879.994 713.281C881.263 714.547 882.983 715.3 884.916 715.3H1211.11C1213.04 715.3 1214.73 714.547 1216.03 713.281C1217.33 711.986 1218.05 710.298 1218.05 708.37V526.181H1218.18ZM1183.97 484.175C1190.82 484.175 1196.38 489.72 1196.38 496.56C1196.38 503.4 1190.82 508.945 1183.97 508.945C1177.11 508.945 1171.56 503.4 1171.56 496.56C1171.59 489.72 1177.14 484.175 1183.97 484.175ZM1099.91 484.175C1106.77 484.175 1112.32 489.72 1112.32 496.56C1112.32 503.4 1106.77 508.945 1099.91 508.945C1093.06 508.945 1087.5 503.4 1087.5 496.56C1087.5 489.72 1093.06 484.175 1099.91 484.175ZM1141.94 484.175C1148.79 484.175 1154.35 489.72 1154.35 496.56C1154.35 503.4 1148.79 508.945 1141.94 508.945C1135.09 508.945 1129.53 503.4 1129.53 496.56C1129.53 489.72 1135.09 484.175 1141.94 484.175Z" fill="#0A0F29"/>
<path d="M504.217 941.453C494.57 941.453 484.744 937.475 478.591 929.679V971.797H459.268V867.821H476.74L477.407 879.258C483.4 870.47 494.044 865.827 504.198 865.827C523.671 865.827 538.016 882.085 538.016 903.64C538.016 925.195 523.69 941.462 504.217 941.453ZM498.233 880.101C486.914 880.101 477.764 888.889 477.764 903.65C477.764 918.41 486.914 927.217 498.233 927.217C509.553 927.217 518.702 918.428 518.702 903.668C518.702 888.908 509.553 880.101 498.233 880.101V880.101Z" fill="#0A0F29"/>
<path d="M610.845 939.478L610.178 928.041C604.185 936.829 593.533 941.472 583.378 941.462C563.905 941.462 549.561 925.214 549.561 903.659C549.561 882.104 563.877 865.846 583.378 865.855C593.533 865.855 604.185 870.535 610.178 879.286L610.845 867.849H628.355V939.478H610.845ZM589.381 880.11C578.061 880.11 568.912 888.899 568.902 903.659C568.893 918.419 578.052 927.217 589.371 927.217C600.691 927.217 609.85 918.428 609.85 903.668C609.85 888.908 600.7 880.11 589.381 880.11Z" fill="#0A0F29"/>
<path d="M695.868 939.487V899.859C695.868 885.932 691.049 881.289 682.228 881.289C673.07 881.289 663.084 889.573 663.084 899.522V939.487H643.77V867.849H661.421L662.257 881.121C667.086 871.995 677.898 865.865 688.889 865.865C708.024 865.865 715.191 879.137 715.191 896.873V939.497L695.868 939.487Z" fill="#0A0F29"/>
<path d="M785.954 939.506L785.287 928.059C779.294 936.848 768.641 941.49 758.496 941.49C739.023 941.49 724.679 925.233 724.679 903.678C724.679 882.122 738.995 865.874 758.496 865.874C768.144 865.874 777.96 869.861 784.122 877.648V840.013H803.436V939.506H785.954ZM764.489 880.138C753.217 880.138 744.021 888.927 744.021 903.678C744.021 918.428 753.17 927.217 764.489 927.217C775.809 927.217 784.958 918.438 784.958 903.678C784.958 888.917 775.837 880.138 764.489 880.138Z" fill="#0A0F29"/>
<path d="M875.974 939.516L875.308 928.078C869.314 936.867 858.662 941.5 848.507 941.5C829.034 941.5 814.69 925.251 814.69 903.687C814.69 882.122 829.006 865.883 848.507 865.883C858.662 865.883 869.314 870.563 875.308 879.324L875.974 867.877H893.447V939.506L875.974 939.516ZM854.51 880.147C843.237 880.147 834.041 888.936 834.031 903.696C834.022 918.456 843.19 927.217 854.5 927.217C865.81 927.217 874.979 918.428 874.979 903.668C874.979 888.908 865.829 880.147 854.51 880.147V880.147Z" fill="#0A0F29"/>
<path d="M936.216 941.846C926.06 941.762 916.114 938.952 907.425 933.713L910.59 920.45C916.414 923.932 925.235 928.415 935.888 928.415C943.544 928.415 948.87 926.094 948.87 920.122C948.87 914.984 943.375 913.159 933.558 910.838C915.917 907.019 909.595 897.734 909.595 887.616C909.595 876.338 918.415 865.734 937.889 865.734C949.706 865.734 960.03 870.872 962.312 872.201L959.147 884.809C952.859 881.037 945.687 878.978 938.349 878.837C930.533 878.837 926.701 881.486 926.701 885.801C926.701 890.602 931.698 892.764 939.345 894.589C958.32 898.567 965.976 907.356 965.976 916.978C966.013 932.393 954.694 941.846 936.216 941.846Z" fill="#0A0F29"/>
<path d="M323.97 819.039H301.34V865.855H323.97V819.039Z" fill="#0A0F29"/>
<path d="M323.97 915.209H301.34V962.025H323.97V915.209Z" fill="#0A0F29"/>
<path d="M323.97 879.52H301.34V901.609H323.97V879.52Z" fill="#FFCA00"/>
<path d="M287.625 857.535H264.996V1013.16H287.625V857.535Z" fill="#0A0F29"/>
<path d="M359.572 953.836H336.943V1000.65H359.572V953.836Z" fill="#0A0F29"/>
<path d="M359.572 857.591H336.943V904.408H359.572V857.591Z" fill="#0A0F29"/>
<path d="M359.572 918.073H336.943V940.161H359.572V918.073Z" fill="#E70488"/>
<path d="M395.165 806.843H372.536V962.465H395.165V806.843Z" fill="#0A0F29"/>
<g clip-path="url(#clip0)">
<path d="M840.212 339.267C827.567 329.337 814.076 319.822 804.859 306.413C785.457 282.768 770.522 255.398 760.311 226.631C754.138 207.923 752.024 187.868 744.062 169.887C735.743 156.823 745.495 142.552 759.828 138.401C766.204 137.174 777.424 131.164 763.88 135.465C751.736 144.354 750.567 127.386 763.017 126.312C771.514 125.187 774.642 118.246 771.733 111.998C762.608 106.056 793.851 99.536 778.129 90.6716C761.763 73.0386 801.032 69.6441 791.342 89.6735C789.026 105.073 818.791 86.8447 811.879 104.632C818.902 113.175 838.169 106.58 837.686 118.558C847.913 119.26 851.423 127.845 861.014 128.505C870.97 132.992 889 136.521 892.383 147.714C882.513 155.511 859.666 131.604 858.563 153.192C861.548 185.09 860.787 217.946 872.473 248.32C878 266.709 891.407 281.185 903.508 295.51C915.093 309.536 930.782 319.417 946.776 327.729C960.802 334.332 975.923 338.708 991.213 341.46C997.413 336.727 1008.36 319.128 1018.03 326.544C1018.49 334.893 998.838 343.984 1017.1 343.061C1027.84 339.827 1035.28 351.339 1044.11 340.952C1052.25 350.579 1077.95 334.806 1072.16 354.481C1064.32 359.527 1052.9 356.478 1045.06 363.421C1032.12 356.97 1021.83 369.186 1007.5 367.646C991.604 370.489 975.421 371.633 959.303 371.657C932.852 369.574 905.843 368.694 880.681 359.5C866.502 355.388 852.671 347.328 840.212 339.267ZM862.549 348.936C876.389 354.904 889.925 361.202 905.096 363.107C929.163 366.443 954.018 371.589 978.17 366.9C967.239 361.974 955.935 368.814 945.046 363.379C931.987 366.18 917.97 362.659 904.687 360.923C889.592 354.211 873.295 349.597 859.158 340.875C841.484 334.434 868.292 349.139 873.066 350.334C884.107 356.587 860.92 347.123 857.646 344.525C848.396 339.344 847.219 340.427 856.733 345.685C858.648 346.803 860.54 347.98 862.549 348.936ZM836.21 330.354C849.626 335.315 836.15 320.939 830.011 321.77C827.287 317.054 819.606 314.074 825.024 311.543C815.281 314.922 814.814 298.7 810.236 301.021C799.923 297.77 806.223 286.256 793.935 279.18C792.815 271.728 781.732 265.27 778.204 254.035C776.644 248.279 765.679 231.763 772.413 247.134C778.145 261.932 788.228 274.616 796.624 287.272C803.137 299.325 810.838 311.932 822.701 319.45C826.705 323.285 830.562 329.151 836.208 330.354H836.21ZM797.575 288C800.026 292.375 798.039 285.976 797.575 288ZM852.281 336.296C848.006 334.621 855.248 334.968 852.281 336.296ZM859.556 338.948C856.232 340.996 858.803 335.289 859.556 338.948ZM868.673 342.741C861.981 340.139 873.006 338.615 868.673 342.741ZM884.294 351.432C875.855 349.969 886.93 347.547 884.294 351.432ZM854.3 330.558C845.59 330.497 861.031 326.206 854.3 330.558ZM861.134 333.961C858.7 334.992 860.939 331.665 861.134 333.961ZM895.301 355.251C900.795 358.714 927.383 362.836 910.736 356.672C907.944 357.258 879.866 348.74 895.301 355.251ZM841.061 313.075C832.528 310.528 840.527 310.775 841.061 313.075ZM856.961 322.339C848.371 320.112 861.107 319.452 856.961 322.339ZM870.342 330.525C860.71 328.281 876.287 328.29 870.342 330.525ZM834.582 306.04C841.028 310.974 860.584 306.675 844.453 303.095C837.118 299.192 820.581 296.518 831.854 305.449L834.582 306.04ZM879.41 333.351C868.147 330.742 882.097 328.787 879.41 333.351ZM865.789 322.547C881.546 326.993 852.535 312.591 861.898 320.905L863.977 321.845L865.789 322.547ZM893.098 338.303C879.614 336.247 908.023 338.445 893.098 338.303ZM828.842 297.421C825.162 297.651 828.256 294.645 828.842 297.421ZM918.343 352.44C913.475 356.174 918.742 347.43 918.343 352.44ZM854.317 312.99C849.653 312.88 853.409 310.349 854.317 312.99ZM830.257 295.678C818.52 291.911 838.824 295.163 830.257 295.678ZM801.754 277.289C792.435 269.917 800.687 273.185 801.754 277.289ZM876.578 324.691C875.838 325.079 875.008 322.903 876.578 324.691ZM923.142 353.221C920.606 354.251 922.999 350.485 923.142 353.221ZM872.456 320.441C865.147 319.373 873.296 316.919 872.456 320.441ZM837.762 298.489C827.543 294.188 844.14 297.81 837.762 298.489ZM896.448 334.893C886.763 332.978 906.386 330.963 896.448 334.893ZM865.926 314.211C877.374 315.681 852.299 306.43 863.408 313.38L865.926 314.211ZM905.714 338.633C916.41 332.259 912.882 353.576 923.856 340.436C934.676 332.547 914.51 350.189 927.842 341.842C937.492 335.399 951.738 344.898 960.737 347.988C967.206 347.675 973.499 353.576 980.138 349.984C992.91 346.547 955.156 344.89 965.052 338.801C953.367 342.198 944.735 334.755 938.984 327.28C925.873 324.257 910.719 317.57 904.172 305.981C901.501 301.639 908.024 306.6 901.867 299.488C893.971 292.478 890.029 284.51 884.727 275.987C878.392 272.617 877.646 262.687 877.009 275.658C877.061 267.47 869.36 261.959 867.477 264.245C867.444 256.362 875.722 260.316 869.928 254.484C868.683 246.313 864.578 237.799 863.347 228.57C861.433 224.126 863.074 214.602 856.801 224.667C854.519 235.309 856.047 211.596 859.6 219.411C864.264 211.436 857.919 212.374 857.665 213.476C860.702 206.747 859.591 197.196 856.869 200.837C858.489 193.699 859.43 174.576 854.453 177.971C857.471 170.504 860.177 143.818 847.065 153.996C841.756 154.071 832.556 155.919 828.214 158.077C841.842 165.578 826.84 160.785 821.285 159.592C820.564 166.534 815.069 163.537 808.2 163.604C819.174 164.958 802.857 174.803 796.575 170.978C788.399 174.872 803.622 184.608 796.735 187.621C797.585 192.151 784.218 185.98 785.262 196.461C777.332 193.123 784.176 208.888 788.145 203.555C801.638 207.204 797.643 215.509 797.982 223.406C795.785 228.002 787.127 212.596 796.056 213.308C789.009 201.885 788.264 209.175 782.411 214.483C781.055 214.865 797.337 222.034 787.119 225.573C796.108 226.962 796.371 234.818 798.203 239.788C803.605 245.407 802.492 233.581 808.965 240.339C804.867 234.319 787.288 223.379 801.443 226.887C801.365 220.834 798.88 215.948 803.222 216.065C807.523 208.303 798.72 235.216 808.405 225.345C811.083 224.178 811.755 217.574 816.571 225.972C823.566 232.846 819.099 237.822 809.227 231.525C810.991 237.51 822.43 239.642 820.276 248.998C822.556 257.227 825.747 254.195 828.527 253.721C830.706 261.713 831.947 255.838 832.048 252.028C842.029 254.164 839.688 260.055 842.816 264.169C849.693 267.266 832.971 243.165 844.777 256.922C857.198 268.122 849.44 272.794 838.29 271.001C845.345 270.431 847.616 280.526 856.446 280.17C864.493 283.995 869.947 298.675 856.073 292.562C851.264 288.227 834.225 282.886 848.144 291.123C860.983 297.066 871.193 300.613 883.582 308.073C892.445 314.388 896.276 321.624 899.635 323.057C892.182 326.611 877.181 320.221 888.322 318.266C881.368 317.003 873.551 313.491 880.206 322.134C885.871 326.858 900.262 326.357 902.85 326.891C900.662 331.7 896.906 332.082 902.934 332.454C896.208 336.035 905.097 336.594 905.716 338.633H905.714ZM891.96 299.852C887.864 295.577 886.805 287.577 891.231 294.534C893.504 295.449 898.5 307.616 891.96 299.852ZM936.763 328.263C936.838 330.2 939.315 328.095 936.763 328.263ZM885.5 289.372C886.973 294.356 885.337 282.912 885.5 289.372ZM881.047 283.394C887.534 286.205 875.891 273.465 881.047 283.394ZM827.077 246.214C828.57 251.375 830.105 245.407 827.077 246.214ZM870.031 269.451C872.211 275.294 871.888 262.483 870.031 269.451ZM839.688 248.387C844.158 251.996 837.552 244.545 839.688 248.387ZM865.723 256.718C860.846 245.815 869.183 250.758 866.808 258.505L865.723 256.718ZM820.82 226.825C818.641 223.245 815.036 212.747 816.198 209.54C817.24 214.763 827.316 232.008 821.132 216.685C814.307 203.843 829.3 220.849 830.843 224.058C831.564 227.242 826.628 223.187 829.969 230.661C823.873 222.153 826.373 235.361 820.82 226.825ZM806.946 217.277C810.118 222.983 807.514 208.955 806.946 217.277ZM813.188 219.426C818.232 228.181 816.164 213.147 813.188 219.426ZM798.168 207.83C793.003 202.698 789.263 197.975 798.414 204.645C801.933 204.781 790.579 193.904 799.263 201.191C808.387 202.852 803.764 216.135 798.168 207.83ZM806.055 207.627C807.65 210.548 809.058 204.656 806.055 207.627ZM810.914 209.175C816.435 212.748 806.36 200.667 810.914 209.175ZM801.264 199.974C786.246 186.621 820.132 206.948 803.715 202.444L801.264 199.974ZM844.301 224.93C837.797 221.043 842.571 197.544 844.794 213.612C851.112 211.57 844.444 221.917 849.151 221.815C848.415 228.34 846.303 230.688 844.301 224.93ZM860.219 234.326C861.558 239.171 860.854 227.242 860.219 234.326ZM857.455 231.592C857.523 235.156 858.167 228.57 857.455 231.592ZM804.205 195.588C794.557 182.296 832.25 209.03 810.389 198.958C808.106 198.357 805.352 198.145 804.205 195.588ZM834.862 211.81C836.898 213.661 833.948 200.618 834.862 211.81ZM858.132 226.715C858.27 230.933 859.93 220.342 858.132 226.715ZM805.69 190.517C811.424 189.29 829.452 200.566 812.898 193.734C811.059 191.702 807.132 192.625 805.69 190.516V190.517ZM854.934 215.017C855.547 203.572 858.363 208.185 854.96 216.66L854.934 215.015V215.017ZM809.956 186.531C812.295 183.109 803.746 171.064 811.184 182.212C814.4 184.76 820.486 186.479 815.111 187.553C823.565 194.996 813.051 189.569 809.956 186.531ZM852.5 211.445C853.926 219.081 854.113 198.408 852.5 211.445ZM805.07 174.492C806.02 176.869 806.86 173.728 805.07 174.492ZM816.172 181.087C821.437 187.757 819.027 175.1 816.172 181.087ZM847.472 198.466C848.064 201.81 847.446 196.172 847.472 198.466ZM845.656 194.463C849.702 200.126 841.314 183.761 845.656 194.463ZM842.992 187.443C845.469 192.997 842.266 183.024 842.992 187.443ZM847.334 180.401C844.35 175.159 851.102 157.289 851.857 168.371C848.709 177.006 850.949 181.832 853.135 170.251C857.191 161.142 852.262 188.241 847.334 180.401ZM851.796 153.827C852.085 155.747 853.095 152.234 851.796 153.827ZM844.344 300.393C844.571 301.368 842.579 298.852 844.344 300.393ZM859.692 308.14C868.231 310.333 868.189 306.818 860.47 305.768C856.324 301.918 843.222 297.828 854.951 305.295C855.724 307.26 858.175 307.208 859.692 308.14ZM829.384 288.041C834.082 291.548 847.098 297.963 836.083 289.381C839.797 285.07 828.976 282.777 832.564 279.891C823.43 274.31 825.354 274.81 831.759 274.988C820.785 270.086 833.344 270.458 832.751 267.946C828.519 267.114 811.727 260.494 821.607 268.487C811.566 263.381 819.214 270.391 816.179 269.654C805.908 266.861 825.322 277.461 814.551 274.828C820.437 279.483 830.401 286.764 817.035 279.754C815.281 282.285 826.602 286.121 829.383 288.041H829.384ZM845.436 297.252C835.861 289.574 864.95 303.526 845.436 297.252ZM927.611 346.946C924.947 350.247 927.865 343.077 927.611 346.946ZM936.057 350.493C940.56 346.143 936.244 357.435 943.52 349.428C943.595 343.695 943.299 340.311 935.159 347.276C932.91 348.521 931.911 353.794 936.057 350.494V350.493ZM801.984 266.44C792.29 261.036 800.6 261.013 801.984 266.44ZM810.997 272.338C799.048 267.319 807.647 266.795 810.997 272.338ZM862.312 303.23C867.326 307.675 885.32 306.49 868.394 303.781C865.891 300.081 852.484 300.971 862.312 303.23ZM932.842 346.721C925.372 349.599 940.551 340.26 932.842 346.721ZM948.88 357.716C945.556 358.622 948.929 355.642 948.88 357.716ZM948.906 354.812C940.637 355.345 957.444 345.788 948.906 354.812ZM779.798 247.898C772.523 237.536 775.279 232.879 768.257 224.413C766.924 217.937 756.216 203.257 762.72 218.809C768.672 227.91 770.436 241.996 779.8 247.898H779.798ZM946.225 351.942C939.781 347.531 961.94 341.807 946.225 351.942ZM958.217 356.631C953.238 355.225 966.087 349.891 958.217 356.631ZM799.311 254.982C793.495 254.551 801.56 251.638 799.311 254.982ZM955.714 353.431C963.329 348.53 953.959 349.283 954.333 353.879L955.714 353.431ZM852.356 288.397C848.329 288.677 852.094 285.079 852.356 288.397ZM858.742 292.063C855.621 292.707 856.707 287.966 858.742 292.063ZM967.935 356.742C977.695 349.714 962.025 355.395 965.891 358.08L967.935 356.742ZM964.196 354.939C955.808 357.884 972.149 348.292 964.196 354.939ZM983.291 367.628C976.805 366.477 988.628 364.064 983.291 367.628ZM804.205 252.57C811.354 254.169 832.791 270.153 820.148 253.68C813.67 251.766 817.554 235.96 810.948 238.754C815.383 246.153 814.592 249.292 805.281 244.638C793.588 238.931 798.709 247.458 801.001 249.811C797.878 250.522 805.121 252.512 804.204 252.569L804.205 252.57ZM771.615 226.878C772.895 221.586 759.819 197.789 765.442 214.949C767.468 218.547 767.257 225.361 771.615 226.878ZM831.435 263.694C831.257 263.254 827.746 260.622 831.435 263.694ZM840.5 265.804C830.478 263.526 840.5 260.198 840.5 265.804ZM919.114 315.269C913.187 315.183 917.613 311.44 919.114 315.269ZM922.888 318.018C920.706 318.434 922.326 315.877 922.888 318.018ZM954.044 337.617C950.304 337.331 957.038 335.408 954.044 337.617ZM787.889 231.026C778.704 228.664 796.462 227.715 787.889 231.026ZM912.192 309.197C906.723 310.578 912.092 303.661 912.192 309.197ZM784.505 223.143C779.408 221.926 790.009 221.292 784.505 223.143ZM800.482 230.872C798.795 231.567 800.387 229.053 800.482 230.872ZM995.402 350.197C1002.48 348.766 1018.62 353.796 1021.22 348.327C1012.63 348.115 991.485 342.264 990.483 349.714L992.366 350.011L995.404 350.197H995.402ZM805.561 232.151C801.177 231.94 805.69 226.538 805.561 232.151ZM763.552 203.054C756.292 201.436 761.645 192.36 763.552 203.054ZM773.567 205.568C764.398 202.478 773.695 202.131 773.567 205.568ZM779.291 208.379C778.002 210.062 777.638 207.04 779.291 208.379ZM815.324 231.448C811.305 230.297 817.021 229.89 815.324 231.448ZM775.484 202.047C763.874 200.837 774.51 193.971 775.484 202.047ZM754.935 188.738C752.932 190.143 754.645 185.013 754.935 188.738ZM757.995 186.438C755.366 186.994 757.496 182.016 757.995 186.438ZM774.874 196.493C782.015 193.699 761.872 190.702 773.415 195.969L774.874 196.493ZM1000.82 335.822C995.022 334.528 1005.39 331.641 1000.82 335.822ZM1028.12 349.943C1023.51 350.655 1029.95 344.543 1028.12 349.943ZM776.599 187.664C770.935 188.704 777.355 182.433 776.599 187.664ZM752.577 171.597C751.288 164.215 751.465 151.253 763.805 155.63C747.335 158.898 775.211 176.073 771.691 162.511C778.619 162.852 785.244 158.424 781.605 165.135C795.258 163.638 804.715 151.82 817.9 153.48C828.169 152.118 839.397 151.093 850.465 146.961C859.564 146.309 868.323 136.53 863.339 130.732C850.932 129.683 837.938 131.231 824.227 133.958C809.031 137.107 795.226 143.099 779.892 145.674C764.94 147.681 782.894 151.194 778.61 151.981C770.816 154.681 787.914 156.502 777.601 159.354C771.234 158.144 764.601 155.96 767.324 149.255C753.009 151.117 740.424 157.043 751.738 171.587L752.578 171.594L752.577 171.597ZM787.084 154.055C790.434 141.713 805.061 164.215 792.579 155.698C791.094 154.579 788.634 153.673 787.084 154.055ZM787.735 148.068C790.306 150.093 792.579 144.472 787.735 148.068ZM793.884 148.172C794.327 142.491 807.972 151.177 796.132 150.212L793.884 148.171V148.172ZM802.296 144.794C803.189 147.976 805.375 141.203 802.296 144.794ZM804.452 143.356C809.573 137.218 833.428 139.434 815.967 142.752C811.285 139.231 807.699 144.826 804.452 143.356ZM835.59 138.563C851.067 144.514 834.819 121.791 835.59 138.563ZM844.428 138.511C847.657 130.064 856.969 135.118 845.928 136.81C846.165 137.716 845.598 141.179 844.428 138.511ZM773.117 183.329C762.871 178.209 782.765 177.428 773.117 183.329ZM780.256 185.302C772.895 183.846 783.641 181.713 780.256 185.302ZM759.226 170.411C752.696 168.803 764.738 166.178 759.226 170.411ZM1044.23 348.402C1040.02 350.611 1044.39 343.492 1044.23 348.402ZM1015.27 328.668C1011.55 329.16 1016.09 323.023 1015.27 328.668ZM1052.2 350.308C1059.91 350.334 1075.56 347.91 1058.78 347.919C1056.15 348.327 1043.44 348.243 1052.2 350.308ZM786.533 181.838C792.775 181.414 796.293 174.971 785.319 175.336C768.317 173.584 800.32 181.153 783.14 178.986C780.834 180.509 786.395 182.261 786.533 181.838ZM792.028 184.616C790.093 186.739 791.374 180.619 792.028 184.616ZM798.548 167.26C794.8 166.363 801.254 163.907 798.548 167.26ZM777.788 132.628C788.932 128.853 804.163 124.603 809.421 134.493C804.069 128.067 807.26 121.734 812.313 131.14C819.462 140.647 823.039 126.814 818.392 123.622C823.694 130.191 829.714 133.299 821.936 124.038C830.392 113.887 805.019 125.367 799.253 125.248C796.48 126.49 770.606 131.833 777.789 132.628H777.788ZM784.318 120.152C790.671 115.369 806.291 123.004 796.267 115.393C795.284 114.531 774.322 121.167 784.318 120.152ZM807.479 121.107C814.907 121.294 804.274 111.135 813.127 115.74C811.677 111 802.815 110.111 798.482 108.215C796.031 112.55 803.466 121.167 807.479 121.107ZM788.38 100.12C783.869 101.89 790.95 96.6412 788.38 100.12ZM797.847 102.379C809.827 100.797 794.791 97.2329 795.427 102.253L797.846 102.379H797.847ZM780.17 88.5808C771.732 77.5841 796.038 90.4269 787.463 78.9124C780.247 73.1823 773.319 85.3727 780.17 88.5808ZM888.421 146.784C892.29 139.942 872.453 137.556 885.818 144.36C887.047 144.768 886.77 147.256 888.421 146.784Z" fill="#0A0F29"/>
</g>
<g clip-path="url(#clip1)">
<path d="M616.722 754.672C702.782 754.672 697.408 717.194 697.408 717.194L697.312 678.364H615.186V666.707H729.931C729.931 666.707 785 672.98 785 585.773C785 498.569 736.934 501.662 736.934 501.662H708.249V542.127C708.249 542.127 709.795 590.398 660.95 590.398H579.497C579.497 590.398 533.733 589.655 533.733 634.816V709.485C533.733 709.485 526.784 754.672 616.721 754.672H616.722ZM662.006 728.563C660.065 728.566 658.143 728.182 656.35 727.437C654.557 726.692 652.927 725.599 651.555 724.222C650.183 722.843 649.095 721.208 648.353 719.406C647.612 717.605 647.23 715.675 647.232 713.727C647.23 711.778 647.61 709.847 648.353 708.046C649.095 706.245 650.183 704.608 651.555 703.23C652.927 701.852 654.557 700.759 656.35 700.014C658.143 699.269 660.065 698.885 662.006 698.888C663.947 698.885 665.869 699.269 667.662 700.014C669.455 700.759 671.085 701.852 672.457 703.229C673.829 704.608 674.917 706.243 675.659 708.045C676.402 709.846 676.782 711.776 676.781 713.724C676.782 715.673 676.402 717.604 675.659 719.405C674.917 721.206 673.829 722.842 672.457 724.221C671.085 725.598 669.455 726.691 667.662 727.436C665.869 728.181 663.947 728.563 662.006 728.562V728.563Z" fill="url(#paint0_linear)"/>
<path d="M614.279 416C528.219 416 533.593 453.479 533.593 453.479L533.688 492.309H615.814V503.967H501.069C501.069 503.967 446 497.695 446 584.898C446 672.103 494.066 669.01 494.066 669.01H522.752V628.544C522.752 628.544 521.205 580.273 570.05 580.273H651.503C651.503 580.273 697.267 581.016 697.267 535.857V461.189C697.267 461.189 704.217 416 614.279 416ZM568.995 442.112C570.936 442.11 572.858 442.493 574.651 443.238C576.444 443.983 578.074 445.076 579.446 446.454C580.819 447.832 581.906 449.469 582.649 451.269C583.39 453.07 583.771 455 583.769 456.949C583.771 458.898 583.39 460.828 582.649 462.629C581.906 464.43 580.819 466.067 579.446 467.445C578.074 468.823 576.444 469.916 574.651 470.661C572.858 471.406 570.936 471.788 568.995 471.786C567.054 471.788 565.132 471.406 563.339 470.661C561.546 469.916 559.916 468.823 558.544 467.445C557.172 466.067 556.084 464.43 555.342 462.629C554.6 460.828 554.219 458.898 554.221 456.949C554.219 455 554.6 453.07 555.342 451.269C556.084 449.469 557.172 447.832 558.544 446.454C559.916 445.076 561.546 443.983 563.339 443.238C565.132 442.493 567.054 442.11 568.995 442.112Z" fill="url(#paint1_linear)"/>
</g>
<defs>
<linearGradient id="paint0_linear" x1="581.695" y1="553.719" x2="762.829" y2="724.224" gradientUnits="userSpaceOnUse">
<stop offset="0.9999" stop-color="#57E79A"/>
<stop offset="1" stop-color="#FFC331"/>
</linearGradient>
<linearGradient id="paint1_linear" x1="478.578" y1="446.462" x2="647.282" y2="612.775" gradientUnits="userSpaceOnUse">
<stop offset="0.9999" stop-color="#0A0F29"/>
<stop offset="1" stop-color="#366994"/>
</linearGradient>
<clipPath id="clip0">
<rect width="332" height="426" fill="white" transform="translate(741 76)"/>
</clipPath>
<clipPath id="clip1">
<rect width="339" height="339" fill="white" transform="translate(446 416)"/>
</clipPath>
</defs>
</svg>
