<svg width="1310" height="1141" viewBox="0 0 1310 1141" fill="none" xmlns="http://www.w3.org/2000/svg">
<path d="M190.675 534H232.298V724.99C210.978 729.027 195.283 730.616 178.301 730.616C127.463 730.562 101 707.825 101 664.156C101 622.081 129.07 594.775 172.569 594.775C179.319 594.775 184.461 595.307 190.675 596.9V534ZM192.134 631.318C187.259 629.724 183.241 629.193 178.098 629.193C157.046 629.193 144.886 642.049 144.886 664.579C144.886 686.515 156.511 698.627 177.831 698.627C182.438 698.627 186.188 698.368 192.134 697.571V631.318V631.318Z" fill="#0A0F29"/>
<path d="M300.365 599.903V695.528C300.365 728.46 297.901 744.297 290.669 757.95C283.919 771.077 275.027 779.354 256.652 788.497L218.029 770.275C236.403 761.727 245.295 754.173 250.974 742.645C256.92 730.857 258.795 717.203 258.795 681.29V599.903H300.365V599.903ZM254.6 534H296.223V576.341H254.6V534Z" fill="#57E79A"/>
<path d="M314.607 223.517V252.038H360.952V278.551H314.607V309.483H367.023V337H280V196H367.023V223.517H314.607Z" fill="#0A0F29"/>
<path d="M491.692 196V223.517H454.049V337H419.443V223.517H381.8V196H491.692Z" fill="#0A0F29"/>
<path d="M543.667 310.487H589V337H509.06V196H543.667V310.487Z" fill="#0A0F29"/>
<path fill-rule="evenodd" clip-rule="evenodd" d="M912.12 524H1232.88C1246.71 524 1258 535.27 1258 549.071V773.929C1258 787.7 1246.71 799 1232.88 799H912.12C898.292 799 887 787.7 887 773.929V549.071C887 535.27 898.292 524 912.12 524ZM1018.94 719.085H986.03L981.29 734.574H951.611L987.026 640.678H1018.85L1054.11 734.574H1023.65L1018.94 719.085ZM1012.81 698.775L1002.55 665.026L992.219 698.775H1012.81ZM1065.59 640.678H1113.95C1124.49 640.678 1132.37 643.179 1137.62 648.181C1142.85 653.183 1145.47 660.325 1145.47 669.546C1145.47 679.038 1142.61 686.451 1136.9 691.784C1131.19 697.148 1122.44 699.8 1110.69 699.8H1094.75V734.544H1065.59V687.611V640.678ZM1094.75 680.786H1101.91C1107.55 680.786 1111.51 679.791 1113.8 677.863C1116.07 675.904 1117.21 673.433 1117.21 670.389C1117.21 667.436 1116.22 664.935 1114.23 662.886C1112.26 660.837 1108.52 659.813 1103.05 659.813H1094.72V680.786H1094.75ZM1164.22 640.678H1193.39V734.574H1164.22V640.678ZM1243.18 594.181H902.972V776.37C902.972 778.298 903.726 779.986 904.994 781.281C906.263 782.547 907.983 783.3 909.916 783.3H1236.11C1238.04 783.3 1239.73 782.547 1241.03 781.281C1242.33 779.986 1243.05 778.298 1243.05 776.37V594.181H1243.18ZM1208.97 552.175C1215.82 552.175 1221.38 557.72 1221.38 564.56C1221.38 571.4 1215.82 576.945 1208.97 576.945C1202.11 576.945 1196.56 571.4 1196.56 564.56C1196.59 557.72 1202.14 552.175 1208.97 552.175ZM1124.91 552.175C1131.77 552.175 1137.32 557.72 1137.32 564.56C1137.32 571.4 1131.77 576.945 1124.91 576.945C1118.06 576.945 1112.5 571.4 1112.5 564.56C1112.5 557.72 1118.06 552.175 1124.91 552.175ZM1166.94 552.175C1173.79 552.175 1179.35 557.72 1179.35 564.56C1179.35 571.4 1173.79 576.945 1166.94 576.945C1160.09 576.945 1154.53 571.4 1154.53 564.56C1154.53 557.72 1160.09 552.175 1166.94 552.175Z" fill="#0A0F29"/>
<path d="M521.217 1017.45C511.57 1017.45 501.744 1013.48 495.591 1005.68V1047.8H476.268V943.821H493.74L494.407 955.258C500.4 946.47 511.044 941.827 521.198 941.827C540.671 941.827 555.016 958.085 555.016 979.64C555.016 1001.2 540.69 1017.46 521.217 1017.45ZM515.233 956.101C503.914 956.101 494.764 964.889 494.764 979.65C494.764 994.41 503.914 1003.22 515.233 1003.22C526.553 1003.22 535.702 994.428 535.702 979.668C535.702 964.908 526.553 956.101 515.233 956.101Z" fill="#0A0F29"/>
<path d="M627.845 1015.48L627.178 1004.04C621.185 1012.83 610.533 1017.47 600.378 1017.46C580.905 1017.46 566.561 1001.21 566.561 979.659C566.561 958.104 580.877 941.846 600.378 941.855C610.533 941.855 621.185 946.535 627.178 955.286L627.845 943.849H645.355V1015.48H627.845ZM606.381 956.11C595.061 956.11 585.912 964.899 585.902 979.659C585.893 994.419 595.052 1003.22 606.371 1003.22C617.691 1003.22 626.85 994.428 626.85 979.668C626.85 964.908 617.7 956.11 606.381 956.11Z" fill="#0A0F29"/>
<path d="M712.868 1015.49V975.859C712.868 961.932 708.049 957.289 699.228 957.289C690.07 957.289 680.084 965.573 680.084 975.522V1015.49H660.77V943.849H678.421L679.257 957.121C684.086 947.995 694.898 941.865 705.889 941.865C725.024 941.865 732.191 955.137 732.191 972.873V1015.5L712.868 1015.49Z" fill="#0A0F29"/>
<path d="M802.954 1015.51L802.287 1004.06C796.294 1012.85 785.641 1017.49 775.496 1017.49C756.023 1017.49 741.679 1001.23 741.679 979.678C741.679 958.122 755.995 941.874 775.496 941.874C785.144 941.874 794.96 945.861 801.122 953.648V916.013H820.436V1015.51H802.954ZM781.489 956.138C770.217 956.138 761.021 964.927 761.021 979.678C761.021 994.428 770.17 1003.22 781.489 1003.22C792.809 1003.22 801.958 994.438 801.958 979.678C801.958 964.917 792.837 956.138 781.489 956.138Z" fill="#0A0F29"/>
<path d="M892.974 1015.52L892.308 1004.08C886.314 1012.87 875.662 1017.5 865.507 1017.5C846.034 1017.5 831.69 1001.25 831.69 979.687C831.69 958.122 846.006 941.883 865.507 941.883C875.662 941.883 886.314 946.563 892.308 955.324L892.974 943.877H910.447V1015.51L892.974 1015.52ZM871.51 956.147C860.237 956.147 851.041 964.936 851.031 979.696C851.022 994.456 860.19 1003.22 871.5 1003.22C882.81 1003.22 891.979 994.428 891.979 979.668C891.979 964.908 882.829 956.147 871.51 956.147Z" fill="#0A0F29"/>
<path d="M953.216 1017.85C943.06 1017.76 933.114 1014.95 924.425 1009.71L927.59 996.45C933.414 999.932 942.235 1004.42 952.888 1004.42C960.544 1004.42 965.87 1002.09 965.87 996.122C965.87 990.984 960.375 989.159 950.558 986.838C932.917 983.019 926.595 973.734 926.595 963.616C926.595 952.338 935.415 941.734 954.889 941.734C966.706 941.734 977.03 946.872 979.312 948.201L976.147 960.809C969.859 957.037 962.687 954.978 955.349 954.837C947.533 954.837 943.701 957.486 943.701 961.801C943.701 966.602 948.698 968.764 956.345 970.589C975.32 974.567 982.976 983.356 982.976 992.978C983.013 1008.39 971.694 1017.85 953.216 1017.85Z" fill="#0A0F29"/>
<path d="M340.97 895.039H318.34V941.855H340.97V895.039Z" fill="#0A0F29"/>
<path d="M340.97 991.209H318.34V1038.03H340.97V991.209Z" fill="#0A0F29"/>
<path d="M340.97 955.52H318.34V977.609H340.97V955.52Z" fill="#FFCA00"/>
<path d="M304.625 933.535H281.996V1089.16H304.625V933.535Z" fill="#57E79A"/>
<path d="M376.572 1029.84H353.943V1076.65H376.572V1029.84Z" fill="#0A0F29"/>
<path d="M376.572 933.591H353.943V980.408H376.572V933.591Z" fill="#0A0F29"/>
<path d="M376.572 994.073H353.943V1016.16H376.572V994.073Z" fill="#E70488"/>
<path d="M412.165 882.843H389.536V1038.47H412.165V882.843Z" fill="#57E79A"/>
<path d="M1040.9 96H700.1C700.045 96 700 96.0447 700 96.0999V436.9C700 436.955 700.045 437 700.1 437H1040.9C1040.96 437 1041 436.955 1041 436.9V96.0999C1041 96.0447 1040.96 96 1040.9 96Z" fill="#0A0F29"/>
<path d="M915.789 342.426C922.449 353.748 931.773 361.74 947.092 361.74C960.412 361.74 969.07 355.08 969.07 345.756C969.07 335.1 960.412 331.104 945.76 324.443L937.768 321.113C914.457 311.123 899.139 299.135 899.139 273.16C899.139 249.184 917.121 230.535 945.76 230.535C966.406 230.535 981.059 237.861 991.049 256.51L966.406 272.494C961.078 262.504 955.084 258.508 945.76 258.508C936.436 258.508 930.441 264.502 930.441 272.494C930.441 281.818 936.436 285.814 950.422 291.809L958.414 295.139C985.721 307.127 1001.04 318.449 1001.04 345.756C1001.04 374.395 978.395 390.379 947.758 390.379C917.787 390.379 898.473 376.393 889.148 357.744L915.789 342.426ZM802.566 345.09C807.895 353.748 811.891 361.74 823.213 361.74C833.869 361.74 840.529 357.744 840.529 341.76V231.201H872.498V340.428C872.498 373.729 853.184 388.381 824.545 388.381C798.57 388.381 783.918 375.061 776.592 359.076L802.566 345.09Z" fill="#57E79A"/>
<g clip-path="url(#clip0)">
<path d="M633.722 830.672C719.782 830.672 714.408 793.194 714.408 793.194L714.312 754.364H632.186V742.707H746.931C746.931 742.707 802 748.98 802 661.773C802 574.569 753.934 577.662 753.934 577.662H725.249V618.127C725.249 618.127 726.795 666.398 677.95 666.398H596.497C596.497 666.398 550.733 665.655 550.733 710.816V785.485C550.733 785.485 543.784 830.672 633.721 830.672H633.722ZM679.006 804.563C677.065 804.566 675.143 804.182 673.35 803.437C671.557 802.692 669.927 801.599 668.555 800.222C667.183 798.843 666.095 797.208 665.353 795.406C664.612 793.605 664.23 791.675 664.232 789.727C664.23 787.778 664.61 785.847 665.353 784.046C666.095 782.245 667.183 780.608 668.555 779.23C669.927 777.852 671.557 776.759 673.35 776.014C675.143 775.269 677.065 774.885 679.006 774.888C680.947 774.885 682.869 775.269 684.662 776.014C686.455 776.759 688.085 777.852 689.457 779.229C690.829 780.608 691.917 782.243 692.659 784.045C693.402 785.846 693.782 787.776 693.781 789.724C693.782 791.673 693.402 793.604 692.659 795.405C691.917 797.206 690.829 798.842 689.457 800.221C688.085 801.598 686.455 802.691 684.662 803.436C682.869 804.181 680.947 804.563 679.006 804.562V804.563Z" fill="url(#paint0_linear)"/>
<path d="M631.279 492C545.219 492 550.593 529.479 550.593 529.479L550.688 568.309H632.814V579.967H518.069C518.069 579.967 463 573.695 463 660.898C463 748.103 511.066 745.01 511.066 745.01H539.752V704.544C539.752 704.544 538.205 656.273 587.05 656.273H668.503C668.503 656.273 714.267 657.016 714.267 611.857V537.189C714.267 537.189 721.217 492 631.279 492ZM585.995 518.112C587.936 518.11 589.858 518.493 591.651 519.238C593.444 519.983 595.074 521.076 596.446 522.454C597.819 523.832 598.906 525.469 599.648 527.269C600.39 529.07 600.771 531 600.769 532.949C600.771 534.898 600.39 536.828 599.648 538.629C598.906 540.43 597.819 542.067 596.446 543.445C595.074 544.823 593.444 545.916 591.651 546.661C589.858 547.406 587.936 547.788 585.995 547.786C584.054 547.788 582.132 547.406 580.339 546.661C578.546 545.916 576.916 544.823 575.544 543.445C574.172 542.067 573.084 540.43 572.342 538.629C571.6 536.828 571.219 534.898 571.221 532.949C571.219 531 571.6 529.07 572.342 527.269C573.084 525.469 574.172 523.832 575.544 522.454C576.916 521.076 578.546 519.983 580.339 519.238C582.132 518.493 584.054 518.11 585.995 518.112Z" fill="url(#paint1_linear)"/>
</g>
<defs>
<linearGradient id="paint0_linear" x1="598.695" y1="629.719" x2="779.829" y2="800.224" gradientUnits="userSpaceOnUse">
<stop offset="0.9999" stop-color="#57E79A"/>
<stop offset="1" stop-color="#FFC331"/>
</linearGradient>
<linearGradient id="paint1_linear" x1="495.578" y1="522.462" x2="664.282" y2="688.775" gradientUnits="userSpaceOnUse">
<stop offset="0.9999" stop-color="#0A0F29"/>
<stop offset="1" stop-color="#366994"/>
</linearGradient>
<clipPath id="clip0">
<rect width="339" height="339" fill="white" transform="translate(463 492)"/>
</clipPath>
</defs>
</svg>
